HIERARCHY
ROOT Hips
{
 OFFSET 0.000000 0.000000 0.000000
 CHANNELS 6 Xposition Yposition Zposition Yrotation Xrotation Zrotation
 JOINT Chest
 {
  OFFSET 0.000000 9.585900 0.002600
  CHANNELS 3 Yrotation Xrotation Zrotation
  JOINT Chest2
  {
   OFFSET 0.000000 9.601200 -0.005300
   CHANNELS 3 Yrotation Xrotation Zrotation
   JOINT Chest3
   {
    OFFSET 0.000000 9.561800 0.000000
    CHANNELS 3 Yrotation Xrotation Zrotation
    JOINT Chest4
    {
     OFFSET 0.000000 9.552100 0.000000
     CHANNELS 3 Yrotation Xrotation Zrotation
     JOINT Neck
     {
      OFFSET 0.000000 14.453000 0.000000
      CHANNELS 3 Yrotation Xrotation Zrotation
      JOINT Head
      {
       OFFSET 0.000000 8.936500 -0.011300
       CHANNELS 3 Yrotation Xrotation Zrotation
       End Site
       {
        OFFSET 0.000000 17.073600 -0.006000
       }
      }
     }
     JOINT RightCollar
     {
      OFFSET -2.921100 9.558500 0.000000
      CHANNELS 3 Yrotation Xrotation Zrotation
      JOINT RightShoulder
      {
       OFFSET -13.519700 0.000000 0.000000
       CHANNELS 3 Yrotation Xrotation Zrotation
       JOINT RightElbow
       {
        OFFSET 0.000000 -29.696600 0.000000
        CHANNELS 3 Yrotation Xrotation Zrotation
        JOINT RightWrist
        {
         OFFSET 0.000000 -24.004700 0.000000
         CHANNELS 3 Yrotation Xrotation Zrotation
         End Site
         {
          OFFSET 0.000000 -17.728500 0.000000
         }
        }
       }
      }
     }
     JOINT LeftCollar
     {
      OFFSET 2.921100 9.558500 0.000000
      CHANNELS 3 Yrotation Xrotation Zrotation
      JOINT LeftShoulder
      {
       OFFSET 13.519700 0.000000 0.000000
       CHANNELS 3 Yrotation Xrotation Zrotation
       JOINT LeftElbow
       {
        OFFSET 0.000000 -29.696600 0.000000
        CHANNELS 3 Yrotation Xrotation Zrotation
        JOINT LeftWrist
        {
         OFFSET 0.000000 -24.004700 0.000000
         CHANNELS 3 Yrotation Xrotation Zrotation
         End Site
         {
          OFFSET 0.000000 -17.728500 0.000000
         }
        }
       }
      }
     }
    }
   }
  }
 }
 JOINT RightHip
 {
  OFFSET -7.771700 -0.012900 -0.001300
  CHANNELS 3 Yrotation Xrotation Zrotation
  JOINT RightKnee
  {
   OFFSET 0.000000 -40.869800 0.001200
   CHANNELS 3 Yrotation Xrotation Zrotation
   JOINT RightAnkle
   {
    OFFSET 0.000000 -39.717900 0.002100
    CHANNELS 3 Yrotation Xrotation Zrotation
    JOINT RightToe
    {
     OFFSET 0.000000 -4.965400 11.033500
     CHANNELS 3 Yrotation Xrotation Zrotation
     End Site
     {
      OFFSET 0.000000 -1.423100 5.872300
     }
    }
   }
  }
 }
 JOINT LeftHip
 {
  OFFSET 7.771700 -0.012900 -0.001300
  CHANNELS 3 Yrotation Xrotation Zrotation
  JOINT LeftKnee
  {
   OFFSET 0.000000 -40.869800 0.001200
   CHANNELS 3 Yrotation Xrotation Zrotation
   JOINT LeftAnkle
   {
    OFFSET 0.000000 -39.717900 0.002100
    CHANNELS 3 Yrotation Xrotation Zrotation
    JOINT LeftToe
    {
     OFFSET 0.000000 -4.965400 11.033500
     CHANNELS 3 Yrotation Xrotation Zrotation
     End Site
     {
      OFFSET 0.000000 -1.423100 5.872300
     }
    }
   }
  }
 }
}
MOTION
Frames: 12
Frame Time: 0.008333
-88.129612 50.247943 -9.905123 163.692506 -9.182378 -0.190578 2.980147 8.251200 1.228789 0.094343 0.381494 0.031394 0.220506 0.703619 0.036921 2.531243 7.575300 0.489118 -3.971962 16.399371 0.579708 -7.554757 -5.207885 2.390081 1.623571 3.852764 -0.605496 -2.813338 -8.295749 -8.819582 48.418500 -61.817665 -27.431289 4.228174 11.803270 -20.667020 -7.263023 0.804210 -0.007130 9.124069 -6.884265 8.897104 -65.746386 -60.199223 45.930402 -6.173460 11.889486 6.619203 1.425286 -71.771742 -0.927767 -163.442145 84.013773 -165.683248 -11.056772 -15.550669 4.121085 -0.033531 0.122843 0.020174 -7.664650 -75.152671 25.429242 121.100565 79.297097 117.775617 -16.025301 -23.373138 1.112954 -0.124710 -1.130080 -0.042226
-88.123976 50.247314 -9.894142 163.657473 -9.222127 -0.188845 2.962359 8.255578 1.244405 0.133126 0.408595 0.018615 0.186034 0.679994 0.049071 2.545720 7.590501 0.487867 -3.951083 16.416888 0.609337 -7.465095 -5.141993 2.418070 1.614439 3.781160 -0.554533 -2.674310 -8.276306 -8.931050 47.630554 -61.579261 -26.403042 4.052867 11.798211 -21.019807 -7.302595 0.765928 -0.000866 8.969773 -6.934549 8.873373 -65.180515 -59.929308 45.361094 -6.044163 11.807184 6.961169 1.392483 -71.738948 -0.857480 -163.344143 84.026904 -165.599577 -11.046572 -15.535750 4.115818 -0.033810 0.123284 0.010335 -7.594687 -75.109367 25.433805 121.032795 79.306995 117.695650 -16.066789 -23.345875 1.120321 -0.104770 -1.131552 -0.031014
-88.121504 50.246709 -9.879890 163.640141 -9.242425 -0.171734 2.890495 8.215920 1.246925 0.171143 0.437860 0.005306 0.191268 0.684158 0.049125 2.528676 7.590067 0.496988 -3.909239 16.450200 0.622095 -7.386277 -5.075403 2.449512 1.628566 3.726690 -0.518260 -2.581493 -8.226082 -9.022856 47.053363 -61.343164 -25.534126 3.909412 11.725437 -21.409109 -7.308995 0.740778 -0.011662 8.821534 -6.983024 8.835685 -64.597263 -59.673793 44.778794 -5.902296 11.714341 7.333571 1.418888 -71.728763 -0.870058 -163.330083 84.039694 -165.591263 -11.043287 -15.517333 4.108626 -0.033211 0.122385 0.002630 -7.481689 -75.091349 25.354608 120.875468 79.304267 117.535568 -16.081898 -23.303203 1.116796 -0.108040 -1.132255 -0.029808
-88.124789 50.245057 -9.857635 163.673300 -9.209875 -0.138172 2.815903 8.158432 1.214086 0.164902 0.436424 0.007002 0.213292 0.699634 0.041494 2.452926 7.557655 0.531066 -3.841245 16.500538 0.608005 -7.334849 -5.024024 2.466915 1.701635 3.742099 -0.544859 -2.522895 -8.225323 -9.068446 46.704976 -61.090350 -24.867042 3.805339 11.584611 -21.884528 -7.274086 0.728466 -0.049756 8.685006 -7.026310 8.785505 -64.001313 -59.427860 44.188486 -5.759977 11.613502 7.726558 1.463577 -71.774786 -0.962438 -163.367032 84.051158 -165.636548 -11.035984 -15.502453 4.103492 -0.035193 0.123229 -0.005201 -7.351576 -75.128604 25.205690 120.627528 79.300182 117.274186 -16.119322 -23.298026 1.118297 -0.095369 -1.070083 -0.021911
-88.121992 50.244747 -9.840587 163.665160 -9.219804 -0.120250 2.795639 8.149680 1.203723 0.123201 0.403848 0.024027 0.262852 0.738962 0.021516 2.445803 7.560248 0.534187 -3.836203 16.518452 0.636717 -7.294920 -4.971560 2.485182 1.707159 3.720356 -0.531594 -2.382168 -8.292304 -9.169446 46.435950 -60.799515 -24.304876 3.734162 11.388992 -22.467318 -7.279315 0.711505 -0.053623 8.536639 -7.094832 8.728839 -63.395323 -59.184305 43.589831 -5.617386 11.510374 8.136593 1.400230 -71.776700 -0.912399 -163.434731 84.067447 -165.720282 -11.039279 -15.482811 4.085370 -0.030233 0.122484 -0.012125 -7.260208 -75.120351 25.129927 120.484324 79.304826 117.122279 -16.093214 -23.259595 1.112213 -0.098255 -1.060461 -0.026441
-88.118436 50.244822 -9.825538 163.649104 -9.242339 -0.099686 2.800259 8.166667 1.188659 0.098533 0.385777 0.035647 0.259724 0.738011 0.020365 2.456524 7.575374 0.530017 -3.829871 16.534949 0.654719 -7.273526 -4.914257 2.516394 1.697158 3.669531 -0.498919 -2.294664 -8.274584 -9.251975 46.693895 -60.514484 -24.215561 3.704823 11.193045 -23.118287 -7.284031 0.695603 -0.056374 8.405770 -7.163261 8.660986 -62.785058 -58.939236 42.990618 -5.469956 11.416057 8.550210 1.343135 -71.765507 -0.859589 -163.447991 84.082028 -165.750354 -11.047795 -15.464717 4.070560 -0.019522 0.122564 -0.019960 -7.149840 -75.098589 25.041248 120.392925 79.312065 117.025613 -16.069964 -23.238721 1.112856 -0.105739 -1.054031 -0.034766
-88.111625 50.245112 -9.811644 163.622465 -9.274851 -0.093371 2.795917 8.176487 1.199269 0.102206 0.390409 0.031724 0.253891 0.733277 0.024869 2.442463 7.577352 0.533139 -3.818998 16.562498 0.668758 -7.255786 -4.858362 2.535828 1.705679 3.636312 -0.483316 -2.184494 -8.299994 -9.346374 47.190254 -60.175032 -24.374343 3.708881 11.049116 -23.765469 -7.329955 0.627387 -0.058049 8.352119 -7.167652 8.579201 -62.175020 -58.687893 42.399085 -5.322890 11.341013 8.945494 1.149845 -71.743059 -0.670497 -163.470049 84.097731 -165.813485 -11.030822 -15.446607 4.044752 -0.017113 0.115906 -0.019019 -7.067012 -75.066592 25.001217 120.348855 79.326138 116.979537 -16.038805 -23.229476 1.101346 -0.119110 -1.041431 -0.030493
-88.107129 50.246155 -9.804417 163.557165 -9.338175 -0.056764 2.786550 8.194678 1.195597 0.161704 0.431707 0.006065 0.225449 0.713742 0.036850 2.433293 7.577584 0.538252 -3.819172 16.595174 0.688333 -7.225251 -4.838813 2.511110 1.716360 3.616893 -0.473681 -2.076483 -8.343284 -9.433756 47.915888 -59.770176 -24.768744 3.718297 10.950810 -24.387913 -7.333986 0.602816 -0.076407 8.271188 -7.213764 8.498523 -61.569372 -58.423860 41.815205 -5.188515 11.292822 9.314330 1.255585 -71.690210 -0.746840 -163.634456 84.111152 -165.956657 -11.005423 -15.439021 4.016814 -0.027784 0.118434 -0.027768 -6.870372 -75.005428 24.872807 120.334247 79.333584 116.968478 -16.032602 -23.159715 1.104457 -0.190078 -1.091545 -0.054188
-88.099995 50.246322 -9.792214 163.528382 -9.371740 -0.050754 2.782386 8.206539 1.205653 0.159876 0.431865 0.006684 0.191153 0.689604 0.051928 2.409976 7.575304 0.543260 -3.782477 16.648465 0.673732 -7.201632 -4.815771 2.498608 1.761629 3.624077 -0.490764 -1.973495 -8.378396 -9.501395 48.830603 -59.308619 -25.360058 3.727161 10.881382 -25.013105 -7.260046 0.635964 -0.126759 8.168885 -7.299454 8.413969 -60.967328 -58.140705 41.229038 -5.069910 11.269266 9.659667 1.237896 -71.664688 -0.726680 -163.745280 84.127956 -166.042985 -11.010662 -15.426924 3.991759 -0.017313 0.119043 -0.038766 -6.827776 -74.971561 24.864259 120.325500 79.344416 116.955598 -15.999287 -23.161870 1.101701 -0.222535 -1.073189 -0.068953
-88.096182 50.246295 -9.780981 163.508053 -9.398969 -0.026785 2.783470 8.223780 1.190988 0.143792 0.420254 0.013819 0.197715 0.694838 0.049088 2.389807 7.567809 0.551536 -3.788013 16.677453 0.681171 -7.193634 -4.757627 2.512518 1.734631 3.571004 -0.476849 -1.826662 -8.388579 -9.576535 49.878757 -58.801088 -26.102831 3.753071 10.856121 -25.643889 -7.291602 0.567955 -0.156115 8.141483 -7.310096 8.336846 -60.365544 -57.832994 40.632066 -4.959311 11.260331 9.984502 1.279593 -71.647394 -0.761591 -163.771503 84.136919 -166.061946 -11.032519 -15.411453 4.009074 -0.020464 0.117751 -0.052255 -6.737950 -74.946572 24.794226 120.323405 79.355749 116.945946 -15.973847 -23.149264 1.104168 -0.196252 -1.072718 -0.076357
-88.094611 50.245413 -9.765772 163.514862 -9.392293 -0.002449 2.756627 8.207357 1.169943 0.127209 0.408536 0.021511 0.221639 0.712068 0.037917 2.352671 7.547739 0.566186 -3.800169 16.705502 0.686957 -7.198248 -4.701932 2.526735 1.732296 3.540299 -0.477492 -1.689175 -8.434143 -9.617632 51.051737 -58.239840 -26.990136 3.792624 10.869739 -26.260356 -7.297547 0.520549 -0.194297 8.096688 -7.343861 8.265252 -59.761896 -57.498641 40.020626 -4.849198 11.245776 10.292015 1.292828 -71.665178 -0.815016 -163.863355 84.147148 -166.138755 -11.019201 -15.402932 3.987202 -0.015696 0.119856 -0.061629 -6.686578 -74.956219 24.738410 120.305760 79.382768 116.911360 -15.952050 -23.123481 1.114305 -0.218443 -1.074770 -0.089707
-88.090435 50.245352 -9.755122 163.498388 -9.409105 0.016964 2.733369 8.198636 1.164939 0.126575 0.408685 0.021503 0.220756 0.712149 0.038070 2.341920 7.545648 0.566815 -3.819652 16.734125 0.691185 -7.288459 -4.601213 2.584141 1.744683 3.522200 -0.482653 -1.550439 -8.509485 -9.629272 52.250041 -57.606924 -27.928963 3.802847 10.866064 -26.859451 -7.288196 0.487081 -0.233180 8.039685 -7.388612 8.193356 -59.163719 -57.138316 39.399825 -4.721666 11.183977 10.597818 1.197939 -71.658141 -0.749438 -164.089376 84.161044 -166.373100 -11.005586 -15.398176 3.955305 -0.015862 0.120775 -0.071158 -6.635406 -74.931853 24.715411 120.299712 79.407253 116.887964 -15.955481 -23.125450 1.120142 -0.262831 -1.062260 -0.099212
